<svg width="36" height="36" viewBox="0 0 36 36" fill="none" xmlns="http://www.w3.org/2000/svg">
<circle cx="18" cy="18" r="16.375" fill="url(#paint0_radial_1047_5476)" stroke="#4534FF" stroke-width="0.75"/>
<path d="M10.6155 26C10.1552 26 9.77083 25.8458 9.4625 25.5375C9.15417 25.2292 9 24.8448 9 24.3845V14.6155C9 14.1552 9.15417 13.7708 9.4625 13.4625C9.77083 13.1542 10.1552 13 10.6155 13H15V11.6152C15 11.1551 15.1542 10.7708 15.4625 10.4625C15.7708 10.1542 16.1552 10 16.6155 10H19.3845C19.8448 10 20.2292 10.1542 20.5375 10.4625C20.8458 10.7708 21 11.1551 21 11.6152V13H25.3845C25.8448 13 26.2292 13.1542 26.5375 13.4625C26.8458 13.7708 27 14.1552 27 14.6155V24.3845C27 24.8448 26.8458 25.2292 26.5375 25.5375C26.2292 25.8458 25.8448 26 25.3845 26H10.6155ZM16 13H20V11.6152C20 11.4614 19.9359 11.3204 19.8077 11.1923C19.6796 11.0641 19.5385 11 19.3845 11H16.6155C16.4615 11 16.3204 11.0641 16.1923 11.1923C16.0641 11.3204 16 11.4614 16 11.6152V13ZM26 18C20.6667 18 15.3333 18 10 18V24.3845C10 24.5385 10.0641 24.6796 10.1923 24.8077C10.3204 24.9359 10.4615 25 10.6155 25H25.3845C25.5385 25 25.6796 24.9359 25.8078 24.8077C25.9359 24.6796 26 24.5385 26 24.3845C26 24.3845 26 19.517 26 18ZM10 17H26V14.6155C26 14.4615 25.9359 14.3204 25.8078 14.1923C25.6796 14.0641 25.5385 14 25.3845 14H10.6155C10.4615 14 10.3204 14.0641 10.1923 14.1923C10.0641 14.3204 10 14.4615 10 14.6155V17Z" fill="#2E04E8"/>
<path d="M16 17.0001H20V18.0001C20 18.5524 19.5523 19.0001 19 19.0001H17C16.4477 19.0001 16 18.5524 16 18.0001V17.0001Z" fill="#2E04E8"/>
<defs>
<radialGradient id="paint0_radial_1047_5476" cx="0" cy="0" r="1" gradientUnits="userSpaceOnUse" gradientTransform="translate(13.3548 11.2903) rotate(59.8064) scale(47.1379)">
<stop offset="0.230769" stop-color="white"/>
<stop offset="0.847282" stop-color="#B1BCF1"/>
</radialGradient>
</defs>
</svg>
