<svg width="24" height="24" viewBox="0 0 24 24" fill="none" xmlns="http://www.w3.org/2000/svg">
<path fill-rule="evenodd" clip-rule="evenodd" d="M4.07643 19.9236C1.69284 17.54 1.69284 13.6755 4.07643 11.2919C4.98994 10.3784 6.12082 9.81488 7.30272 9.60178L5.4476 7.74665C4.3574 8.15441 3.33487 8.79661 2.45799 9.67349C-0.819331 12.9508 -0.819331 18.2647 2.45799 21.542C5.73532 24.8193 11.0492 24.8193 14.3265 21.542C15.2034 20.6651 15.8456 19.6426 16.2533 18.5524L14.3984 16.6975C14.1851 17.8792 13.6218 19.0103 12.7083 19.9238C10.3247 22.3074 6.46024 22.3074 4.07665 19.9238L4.07643 19.9236Z" fill="#03021D"/>
<path fill-rule="evenodd" clip-rule="evenodd" d="M16.7121 16.7121C18.4784 16.4788 20.1848 15.6837 21.542 14.3265C24.8193 11.0492 24.8193 5.73533 21.542 2.458C18.2647 -0.819332 12.9508 -0.819332 9.6735 2.458C8.31627 3.81523 7.52121 5.52156 7.28789 7.2879C9.78702 6.95792 12.4062 7.7532 14.3265 9.67351C16.2468 11.5938 17.0419 14.2128 16.7121 16.7121Z" fill="#03021D"/>
<path fill-rule="evenodd" clip-rule="evenodd" d="M7.30272 9.60178C7.55291 11.3306 8.34344 12.9964 9.67348 14.3265C11.0035 15.6565 12.6694 16.4471 14.3982 16.6973C14.7414 14.7954 14.1781 12.762 12.708 11.2919C11.238 9.82183 9.20438 9.25832 7.30272 9.60178Z" fill="#03021D"/>
</svg>
