<svg width="36" height="36" viewBox="0 0 36 36" fill="none" xmlns="http://www.w3.org/2000/svg">
<path d="M18.2555 3.73828C19.5125 3.86625 20.4938 4.92794 20.4938 6.21875C20.4936 6.86428 20.246 7.45086 19.8434 7.89355H30.3502V31.4248H5.65002V7.89355H16.1549C15.8065 7.51001 15.5756 7.01806 15.5201 6.47363L15.5074 6.21875L15.5201 5.96387C15.6477 4.70645 16.7095 3.72559 18.0006 3.72559L18.2555 3.73828ZM6.97424 30.1006H29.026V9.21777H6.97424V30.1006ZM19.1862 17.8887H22.6754V20.2607H19.1862V23.75H16.8141V20.2607H13.3248V17.8887H16.8141V14.3994H19.1862V17.8887ZM18.0006 5.0498C17.3551 5.0498 16.8317 5.57324 16.8317 6.21875C16.832 6.82351 17.2915 7.32181 17.8805 7.38184L18.0006 7.3877C18.6055 7.38739 19.1038 6.92701 19.1637 6.33789L19.1696 6.21875C19.1696 5.57344 18.6458 5.05013 18.0006 5.0498Z" fill="#747480"/>
</svg>
