<svg width="36" height="36" viewBox="0 0 36 36" fill="none" xmlns="http://www.w3.org/2000/svg">
<circle cx="18" cy="18" r="16.375" fill="url(#paint0_radial_1047_29926)" stroke="#4534FF" stroke-width="0.75"/>
<path d="M18 17.3845C17.175 17.3845 16.4688 17.0907 15.8813 16.5032C15.2938 15.9157 15 15.2095 15 14.3845C15 13.5595 15.2938 12.8532 15.8813 12.2657C16.4688 11.6782 17.175 11.3845 18 11.3845C18.825 11.3845 19.5313 11.6782 20.1188 12.2657C20.7063 12.8532 21 13.5595 21 14.3845C21 15.2095 20.7063 15.9157 20.1188 16.5032C19.5313 17.0907 18.825 17.3845 18 17.3845ZM11 24.6155V22.9692C11 22.5564 11.1202 22.1702 11.3605 21.8105C11.601 21.451 11.9244 21.1718 12.3307 20.973C13.2744 20.5205 14.2187 20.1811 15.1635 19.9547C16.1083 19.7286 17.0538 19.6155 18 19.6155C18.9462 19.6155 19.8917 19.7286 20.8365 19.9547C21.7813 20.1811 22.7256 20.5205 23.6693 20.973C24.0756 21.1718 24.399 21.451 24.6395 21.8105C24.8798 22.1702 25 22.5564 25 22.9692V24.6155H11ZM12 23.6155H24V22.9692C24 22.7474 23.9285 22.5391 23.7855 22.3442C23.6427 22.1494 23.4449 21.9847 23.1923 21.85C22.3693 21.4513 21.5207 21.1459 20.6465 20.9337C19.7723 20.7216 18.8902 20.6155 18 20.6155C17.1098 20.6155 16.2277 20.7216 15.3535 20.9337C14.4793 21.1459 13.6307 21.4513 12.8077 21.85C12.5551 21.9847 12.3573 22.1494 12.2145 22.3442C12.0715 22.5391 12 22.7474 12 22.9692V23.6155ZM18 16.3845C18.55 16.3845 19.0208 16.1887 19.4125 15.797C19.8042 15.4053 20 14.9345 20 14.3845C20 13.8345 19.8042 13.3637 19.4125 12.972C19.0208 12.5803 18.55 12.3845 18 12.3845C17.45 12.3845 16.9792 12.5803 16.5875 12.972C16.1958 13.3637 16 13.8345 16 14.3845C16 14.9345 16.1958 15.4053 16.5875 15.797C16.9792 16.1887 17.45 16.3845 18 16.3845Z" fill="#2E04E8"/>
<defs>
<radialGradient id="paint0_radial_1047_29926" cx="0" cy="0" r="1" gradientUnits="userSpaceOnUse" gradientTransform="translate(13.3548 11.2903) rotate(59.8064) scale(47.1379)">
<stop offset="0.230769" stop-color="white"/>
<stop offset="0.847282" stop-color="#B1BCF1"/>
</radialGradient>
</defs>
</svg>
